<?xml version="1.0" encoding="UTF-8" standalone="no"?>
<svg
   xmlns:dc="http://purl.org/dc/elements/1.1/"
   xmlns:cc="http://creativecommons.org/ns#"
   xmlns:rdf="http://www.w3.org/1999/02/22-rdf-syntax-ns#"
   xmlns:svg="http://www.w3.org/2000/svg"
   xmlns="http://www.w3.org/2000/svg"
   version="1.1"
   id="svg3850"
   viewBox="0 0 139.83436 139.92741"
   height="39.490623mm"
   width="39.464363mm">
  <defs
     id="defs3852">
    <clipPath
       id="clipPath64"
       clipPathUnits="userSpaceOnUse">
      <path
         id="path66"
         d="M 0,0 612,0 612,792 0,792 0,0 Z" />
    </clipPath>
  </defs>
  <metadata
     id="metadata3855">
    <rdf:RDF>
      <cc:Work
         rdf:about="">
        <dc:format>image/svg+xml</dc:format>
        <dc:type
           rdf:resource="http://purl.org/dc/dcmitype/StillImage" />
        <dc:title></dc:title>
      </cc:Work>
    </rdf:RDF>
  </metadata>
  <g
     transform="translate(-161.85833,-312.04137)"
     id="layer1">
    <g
       clip-path="url(#clipPath64)"
       id="g62"
       transform="matrix(1.6015407,0,0,-1.6015407,-456.84391,1463.2836)">
      <g
         transform="translate(408.1439,681.8727)"
         id="g68">
        <path
           id="path70"
           style="fill:#891b2f;fill-opacity:1;fill-rule:nonzero;stroke:none"
           d="m 0,0 -17.587,10.156 c -0.379,0.171 -0.792,0.282 -1.236,0.282 -1.615,0 -2.923,-1.27 -3.004,-2.866 l 0,-45.38 L 0,-50.409 l 0,25.205 21.83,-12.604 0,25.205 L 0,0 Z" />
      </g>
      <g
         transform="translate(470.6243,692.2894)"
         id="g72">
        <path
           id="path74"
           style="fill:#b20029;fill-opacity:1;fill-rule:nonzero;stroke:none"
           d="m 0,0 c -0.487,0 -0.944,-0.123 -1.352,-0.328 l -17.47,-10.088 -21.83,-12.604 0,-25.205 21.83,12.605 0,-25.205 21.827,12.6 0,45.351 C 2.926,-1.275 1.618,0 0,0" />
      </g>
      <g
         transform="translate(429.9567,718.8342)"
         id="g76">
        <path
           id="path78"
           style="fill:#891b2f;fill-opacity:1;fill-rule:nonzero;stroke:none"
           d="m 0,0 c -1.062,0 -2.058,-0.283 -2.917,-0.776 l -16.656,-9.645 c -0.44,-0.267 -0.734,-0.75 -0.734,-1.302 0,-0.547 0.289,-1.026 0.722,-1.295 l 16.668,-9.649 c 0.859,-0.494 1.855,-0.776 2.917,-0.776 1.062,0 2.058,0.282 2.918,0.776 l 16.668,9.649 c 0.432,0.269 0.721,0.748 0.721,1.295 0,0.552 -0.293,1.035 -0.734,1.302 L 2.918,-0.776 C 2.058,-0.283 1.062,0 0,0" />
      </g>
    </g>
  </g>
</svg>
