<svg width="190" height="50" viewBox="0 0 190 50" fill="none" xmlns="http://www.w3.org/2000/svg">
<path d="M3.67459 11.5951H11.8291V3.48171C11.8291 2.03494 10.6505 0.861328 9.19596 0.861328C7.74138 0.861328 6.56287 2.03494 6.56287 3.48171V6.3567H3.67459C2.22001 6.3567 1.0415 7.53032 1.0415 8.97708C1.0415 10.4238 2.22001 11.5974 3.67459 11.5974V11.5951Z" fill="#08529C"/>
<path d="M19.1717 15.0996L26.4933 26.8103H26.542V15.0996H30.1541V32.5556H26.2961L18.9977 20.8681H18.949V32.5556H15.3369V15.0996H19.1694H19.1717Z" fill="#08529C"/>
<path d="M31.9706 23.8033C32.0193 22.9884 32.2234 22.3125 32.5853 21.7732C32.9449 21.2361 33.4043 20.8033 33.961 20.4769C34.5178 20.1505 35.1442 19.919 35.8402 19.7801C36.5361 19.6412 37.2367 19.5718 37.942 19.5718C38.58 19.5718 39.2272 19.6158 39.8837 19.706C40.538 19.7963 41.1365 19.9722 41.677 20.2315C42.2176 20.4931 42.6607 20.8542 43.004 21.3195C43.3474 21.7847 43.519 22.4005 43.519 23.1644V29.7408C43.519 30.3125 43.5515 30.8565 43.6165 31.3796C43.6814 31.9005 43.7974 32.2917 43.9598 32.5533H40.422C40.357 32.3565 40.3036 32.1574 40.2619 31.9537C40.2201 31.75 40.1923 31.5417 40.176 31.331C39.6193 31.9028 38.9627 32.3009 38.2111 32.5301C37.4571 32.7593 36.6869 32.8727 35.9005 32.8727C35.295 32.8727 34.7289 32.7986 34.2046 32.6528C33.6803 32.507 33.221 32.2778 32.8289 31.9676C32.4369 31.6574 32.1283 31.2662 31.9079 30.794C31.6875 30.3218 31.5762 29.7593 31.5762 29.1065C31.5762 28.3889 31.7038 27.7986 31.9566 27.3334C32.2095 26.8681 32.5389 26.4977 32.9403 26.2199C33.3416 25.9421 33.801 25.7361 34.316 25.5972C34.831 25.4584 35.353 25.3496 35.8773 25.2662C36.4016 25.1852 36.9166 25.1204 37.4246 25.0695C37.9327 25.0209 38.3828 24.9468 38.7771 24.8496C39.1692 24.7523 39.4824 24.6088 39.7097 24.4213C39.9394 24.2338 40.0461 23.9607 40.0299 23.6019C40.0299 23.2269 39.9696 22.9306 39.8466 22.7084C39.7237 22.4884 39.559 22.3171 39.3548 22.1945C39.1507 22.0718 38.9117 21.9908 38.6426 21.9491C38.3712 21.9097 38.0812 21.8889 37.7703 21.8889C37.0813 21.8889 36.5408 22.0347 36.1487 22.3287C35.7566 22.6227 35.527 23.1111 35.4597 23.7963H31.9706V23.8033ZM40.0299 26.3704C39.8814 26.5 39.6981 26.6019 39.4778 26.6759C39.2574 26.75 39.0184 26.8102 38.7656 26.8588C38.5104 26.9074 38.2459 26.9491 37.9675 26.9815C37.6891 27.0139 37.4107 27.0556 37.1323 27.1042C36.8702 27.1528 36.6127 27.2176 36.3575 27.3009C36.1023 27.382 35.8819 27.4931 35.694 27.632C35.5061 27.7709 35.353 27.9468 35.2393 28.1574C35.1233 28.3704 35.0676 28.6389 35.0676 28.9653C35.0676 29.2917 35.1256 29.5371 35.2393 29.7477C35.353 29.9607 35.5084 30.1273 35.7056 30.25C35.9028 30.3727 36.1325 30.4583 36.3946 30.507C36.6568 30.5556 36.9259 30.581 37.2066 30.581C37.8956 30.581 38.4268 30.4676 38.8027 30.2384C39.1785 30.0093 39.4569 29.7361 39.6378 29.419C39.8188 29.1019 39.9278 28.7801 39.9696 28.4537C40.0113 28.1273 40.0299 27.8681 40.0299 27.6713V26.375V26.3704Z" fill="#08529C"/>
<path d="M49.0821 19.9144V22.2616H49.1308C49.2955 21.8704 49.5159 21.507 49.7943 21.1736C50.0727 20.8403 50.3929 20.5533 50.7524 20.3171C51.112 20.081 51.4971 19.8982 51.9077 19.7662C52.3161 19.6366 52.7429 19.5718 53.186 19.5718C53.4157 19.5718 53.6686 19.6134 53.9469 19.6945V22.9213C53.7822 22.8889 53.5874 22.8611 53.3577 22.8357C53.128 22.8102 52.9076 22.7986 52.6942 22.7986C52.0562 22.7986 51.5157 22.9051 51.0726 23.1158C50.6295 23.3287 50.2745 23.6181 50.0031 23.9838C49.7317 24.3496 49.5391 24.7778 49.4255 25.2685C49.3118 25.757 49.2538 26.2871 49.2538 26.8588V32.5556H45.7646V19.9144H49.0821Z" fill="#08529C"/>
<path d="M55.6961 23.8033C55.7449 22.9884 55.949 22.3125 56.3109 21.7732C56.6705 21.2361 57.1298 20.8033 57.6866 20.4769C58.2434 20.1505 58.8698 19.919 59.5657 19.7801C60.2617 19.6412 60.9623 19.5718 61.6676 19.5718C62.3055 19.5718 62.9528 19.6158 63.6093 19.706C64.2635 19.7963 64.8621 19.9722 65.4026 20.2315C65.9432 20.4931 66.3863 20.8542 66.7296 21.3195C67.0729 21.7847 67.2446 22.4005 67.2446 23.1644V29.7408C67.2446 30.3125 67.2771 30.8565 67.3421 31.3796C67.407 31.9005 67.523 32.2917 67.6854 32.5533H64.1475C64.0826 32.3565 64.0292 32.1574 63.9875 31.9537C63.9457 31.75 63.9179 31.5417 63.9016 31.331C63.3449 31.9028 62.6883 32.3009 61.9367 32.5301C61.1827 32.7593 60.4125 32.8727 59.6261 32.8727C59.0206 32.8727 58.4545 32.7986 57.9302 32.6528C57.4059 32.507 56.9466 32.2778 56.5545 31.9676C56.1624 31.6574 55.8539 31.2662 55.6335 30.794C55.4131 30.3218 55.3018 29.7593 55.3018 29.1065C55.3018 28.3889 55.4294 27.7986 55.6822 27.3334C55.9351 26.8681 56.2645 26.4977 56.6659 26.2199C57.0672 25.9421 57.5265 25.7361 58.0416 25.5972C58.5566 25.4584 59.0786 25.3496 59.6029 25.2662C60.1272 25.1852 60.6422 25.1204 61.1502 25.0695C61.6583 25.0209 62.1084 24.9468 62.5027 24.8496C62.8948 24.7523 63.208 24.6088 63.4353 24.4213C63.665 24.2338 63.7717 23.9607 63.7555 23.6019C63.7555 23.2269 63.6952 22.9306 63.5722 22.7084C63.4493 22.4884 63.2845 22.3171 63.0804 22.1945C62.8762 22.0718 62.6373 21.9908 62.3682 21.9491C62.0968 21.9097 61.8068 21.8889 61.4959 21.8889C60.8069 21.8889 60.2663 22.0347 59.8743 22.3287C59.4822 22.6227 59.2525 23.1111 59.1853 23.7963H55.6961V23.8033ZM63.7578 26.3704C63.6093 26.5 63.4261 26.6019 63.2057 26.6759C62.9853 26.75 62.7463 26.8102 62.4935 26.8588C62.2383 26.9074 61.9738 26.9491 61.6954 26.9815C61.417 27.0139 61.1386 27.0556 60.8602 27.1042C60.5981 27.1528 60.3406 27.2176 60.0854 27.3009C59.8302 27.382 59.6098 27.4931 59.4219 27.632C59.234 27.7709 59.0809 27.9468 58.9672 28.1574C58.8512 28.3704 58.7955 28.6389 58.7955 28.9653C58.7955 29.2917 58.8535 29.5371 58.9672 29.7477C59.0809 29.9607 59.2363 30.1273 59.4335 30.25C59.6307 30.3727 59.8604 30.4583 60.1225 30.507C60.3847 30.5556 60.6538 30.581 60.9345 30.581C61.6235 30.581 62.1548 30.4676 62.5306 30.2384C62.9064 30.0093 63.1848 29.7361 63.3657 29.419C63.5467 29.1019 63.6557 28.7801 63.6975 28.4537C63.7392 28.1273 63.7578 27.8681 63.7578 27.6713V26.375V26.3704Z" fill="#08529C"/>
<path d="M74.441 36.3195C73.7682 36.7593 72.8356 36.9792 71.6408 36.9792C71.2812 36.9792 70.924 36.9677 70.5714 36.9422C70.2187 36.9167 69.8638 36.889 69.5019 36.8566V33.9954C69.829 34.0279 70.1654 34.0603 70.5087 34.0927C70.8521 34.1251 71.1977 34.1343 71.5411 34.1181C72.0004 34.0695 72.3391 33.889 72.5618 33.5811C72.7822 33.2709 72.8936 32.9283 72.8936 32.5533C72.8936 32.2755 72.8449 32.0163 72.7451 31.7709L68.2979 19.9121H72.0074L74.8817 28.5672H74.9305L77.7074 19.9121H81.3195L76.0115 34.1181C75.6334 35.1459 75.1114 35.8774 74.4386 36.3195H74.441Z" fill="#08529C"/>
<path d="M82.2289 23.8033C82.2776 22.9884 82.4817 22.3125 82.8436 21.7732C83.2032 21.2361 83.6626 20.8033 84.2193 20.4769C84.7761 20.1505 85.4025 19.919 86.0985 19.7801C86.7944 19.6412 87.495 19.5718 88.2003 19.5718C88.8383 19.5718 89.4855 19.6158 90.142 19.706C90.7963 19.7963 91.3948 19.9722 91.9353 20.2315C92.4759 20.4931 92.919 20.8542 93.2623 21.3195C93.6057 21.7847 93.7773 22.4005 93.7773 23.1644V29.7408C93.7773 30.3125 93.8098 30.8565 93.8748 31.3796C93.9397 31.9005 94.0557 32.2917 94.2181 32.5533H90.6803C90.6153 32.3565 90.5619 32.1574 90.5202 31.9537C90.4784 31.75 90.4506 31.5417 90.4344 31.331C89.8776 31.9028 89.221 32.3009 88.4694 32.5301C87.7154 32.7593 86.9452 32.8727 86.1588 32.8727C85.5533 32.8727 84.9872 32.7986 84.4629 32.6528C83.9386 32.507 83.4793 32.2778 83.0872 31.9676C82.6952 31.6574 82.3866 31.2662 82.1662 30.794C81.9458 30.3218 81.8345 29.7593 81.8345 29.1065C81.8345 28.3889 81.9621 27.7986 82.2149 27.3334C82.4678 26.8681 82.7972 26.4977 83.1986 26.2199C83.5999 25.9421 84.0593 25.7361 84.5743 25.5972C85.0893 25.4584 85.6113 25.3496 86.1356 25.2662C86.6599 25.1852 87.1749 25.1204 87.6829 25.0695C88.191 25.0209 88.6411 24.9468 89.0355 24.8496C89.4275 24.7523 89.7407 24.6088 89.9681 24.4213C90.1977 24.2338 90.3044 23.9607 90.2882 23.6019C90.2882 23.2269 90.2279 22.9306 90.1049 22.7084C89.982 22.4884 89.8173 22.3171 89.6131 22.1945C89.409 22.0718 89.17 21.9908 88.9009 21.9491C88.6295 21.9097 88.3395 21.8889 88.0286 21.8889C87.3396 21.8889 86.7991 22.0347 86.407 22.3287C86.0149 22.6227 85.7853 23.1111 85.718 23.7963H82.2289V23.8033ZM90.2882 26.3704C90.1397 26.5 89.9565 26.6019 89.7361 26.6759C89.5157 26.75 89.2767 26.8102 89.0238 26.8588C88.7687 26.9074 88.5042 26.9491 88.2258 26.9815C87.9474 27.0139 87.669 27.0556 87.3906 27.1042C87.1285 27.1528 86.871 27.2176 86.6158 27.3009C86.3606 27.382 86.1402 27.4931 85.9523 27.632C85.7644 27.7709 85.6113 27.9468 85.4976 28.1574C85.3816 28.3704 85.3259 28.6389 85.3259 28.9653C85.3259 29.2917 85.3839 29.5371 85.4976 29.7477C85.6113 29.9607 85.7667 30.1273 85.9639 30.25C86.1611 30.3727 86.3908 30.4583 86.6529 30.507C86.9151 30.5556 87.1842 30.581 87.4649 30.581C88.1539 30.581 88.6851 30.4676 89.061 30.2384C89.4368 30.0093 89.7152 29.7361 89.8961 29.419C90.0771 29.1019 90.1861 28.7801 90.2279 28.4537C90.2696 28.1273 90.2882 27.8681 90.2882 27.6713V26.375V26.3704Z" fill="#08529C"/>
<path d="M99.3403 19.9142V21.6735H99.4145C99.8576 20.9397 100.431 20.4073 101.134 20.0717C101.839 19.7383 102.558 19.5693 103.296 19.5693C104.228 19.5693 104.994 19.6967 105.592 19.949C106.191 20.2013 106.662 20.5531 107.005 20.9999C107.349 21.449 107.59 21.9953 107.729 22.6388C107.868 23.2823 107.938 23.9953 107.938 24.7777V32.5531H104.449V25.4142C104.449 24.3703 104.284 23.5925 103.957 23.0786C103.63 22.5647 103.047 22.3078 102.212 22.3078C101.261 22.3078 100.574 22.5879 100.148 23.1504C99.7208 23.7129 99.5096 24.6388 99.5096 25.9258V32.5508H96.0205V19.9096H99.338L99.3403 19.9142Z" fill="#08529C"/>
<path d="M109.747 23.8033C109.796 22.9884 110 22.3125 110.362 21.7732C110.722 21.2361 111.181 20.8033 111.738 20.4769C112.295 20.1505 112.921 19.919 113.617 19.7801C114.313 19.6412 115.014 19.5718 115.719 19.5718C116.357 19.5718 117.004 19.6158 117.661 19.706C118.315 19.7963 118.913 19.9722 119.454 20.2315C119.994 20.4931 120.438 20.8542 120.781 21.3195C121.124 21.7847 121.296 22.4005 121.296 23.1644V29.7408C121.296 30.3125 121.328 30.8565 121.393 31.3796C121.458 31.9005 121.574 32.2917 121.737 32.5533H118.199C118.134 32.3565 118.081 32.1574 118.039 31.9537C117.997 31.75 117.969 31.5417 117.953 31.331C117.396 31.9028 116.74 32.3009 115.988 32.5301C115.234 32.7593 114.464 32.8727 113.677 32.8727C113.072 32.8727 112.506 32.7986 111.981 32.6528C111.457 32.507 110.998 32.2778 110.606 31.9676C110.214 31.6574 109.905 31.2662 109.685 30.794C109.464 30.3218 109.353 29.7593 109.353 29.1065C109.353 28.3889 109.481 27.7986 109.733 27.3334C109.986 26.8681 110.316 26.4977 110.717 26.2199C111.118 25.9421 111.578 25.7361 112.093 25.5972C112.608 25.4584 113.13 25.3496 113.654 25.2662C114.178 25.1852 114.693 25.1204 115.201 25.0695C115.71 25.0209 116.16 24.9468 116.554 24.8496C116.946 24.7523 117.259 24.6088 117.487 24.4213C117.716 24.2338 117.823 23.9607 117.807 23.6019C117.807 23.2269 117.744 22.9306 117.623 22.7084C117.501 22.4884 117.336 22.3171 117.132 22.1945C116.928 22.0718 116.689 21.9908 116.419 21.9491C116.148 21.9097 115.858 21.8889 115.547 21.8889C114.858 21.8889 114.318 22.0347 113.926 22.3287C113.533 22.6227 113.304 23.1111 113.237 23.7963H109.747V23.8033ZM117.807 26.3704C117.658 26.5 117.475 26.6019 117.255 26.6759C117.034 26.75 116.795 26.8102 116.542 26.8588C116.287 26.9074 116.023 26.9491 115.744 26.9815C115.466 27.0139 115.188 27.0556 114.909 27.1042C114.647 27.1528 114.39 27.2176 114.134 27.3009C113.879 27.382 113.659 27.4931 113.471 27.632C113.283 27.7709 113.13 27.9468 113.016 28.1574C112.9 28.3704 112.844 28.6389 112.844 28.9653C112.844 29.2917 112.902 29.5371 113.016 29.7477C113.13 29.9607 113.288 30.1273 113.482 30.25C113.68 30.3727 113.909 30.4583 114.171 30.507C114.434 30.5556 114.703 30.581 114.983 30.581C115.672 30.581 116.204 30.4676 116.582 30.2384C116.958 30.0093 117.236 29.7361 117.417 29.419C117.598 29.1019 117.707 28.7801 117.749 28.4537C117.791 28.1273 117.811 27.8681 117.811 27.6713V26.375L117.807 26.3704Z" fill="#08529C"/>
<path d="M15.3394 3.48157V11.595H23.4938C24.9484 11.595 26.1269 10.4214 26.1269 8.97462C26.1269 7.52786 24.9484 6.35425 23.4938 6.35425H20.6055V3.47925C20.6055 2.0325 19.427 0.858887 17.9724 0.858887C16.5179 0.858887 15.3394 2.0325 15.3394 3.47925V3.48157Z" fill="#E82329"/>
<path d="M11.8291 23.1989V15.0854H3.67459C2.22001 15.0854 1.0415 16.2591 1.0415 17.7058C1.0415 19.1526 2.22001 20.3262 3.67459 20.3262H6.56287V23.2012C6.56287 24.648 7.74138 25.8216 9.19596 25.8216C10.6505 25.8216 11.8291 24.648 11.8291 23.2012V23.1989Z" fill="#E82329"/>
<path d="M17.6522 37.8032V41.8217H21.9138V37.8032H24.2291V48.2778H21.9138V43.7592H17.6522V48.2778H15.3369V37.8032H17.6522Z" fill="#E82329"/>
<path d="M27.9897 46.4586C28.3052 46.7618 28.7552 46.9123 29.3468 46.9123C29.769 46.9123 30.1332 46.8081 30.4371 46.5974C30.7411 46.3868 30.929 46.1646 30.9986 45.9308H32.8406C32.5459 46.8405 32.0936 47.491 31.4834 47.8822C30.8733 48.2734 30.1356 48.4678 29.2726 48.4678C28.674 48.4678 28.1312 48.3729 27.6509 48.1808C27.1684 47.991 26.7601 47.7178 26.426 47.366C26.092 47.0141 25.8345 46.5928 25.6512 46.1044C25.4702 45.616 25.3774 45.0766 25.3774 44.491C25.3774 43.9053 25.4702 43.3961 25.6581 42.9053C25.8437 42.4169 26.1105 41.9933 26.4539 41.6368C26.7972 41.2803 27.2078 40.9979 27.6857 40.7942C28.1613 40.5882 28.6903 40.4863 29.2702 40.4863C29.9198 40.4863 30.4835 40.6113 30.9661 40.8613C31.4486 41.1113 31.843 41.4447 32.1539 41.866C32.4624 42.2873 32.6875 42.7664 32.8243 43.3035C32.9612 43.8405 33.0099 44.403 32.9728 44.991H27.4723C27.5025 45.6669 27.6741 46.1553 27.9873 46.4586H27.9897ZM30.356 42.4678C30.1054 42.1947 29.7249 42.0581 29.2122 42.0581C28.8782 42.0581 28.5998 42.1136 28.3794 42.2271C28.159 42.3405 27.9804 42.4794 27.8481 42.6461C27.7159 42.8127 27.6208 42.9886 27.5674 43.1738C27.5141 43.359 27.4816 43.5257 27.4723 43.6715H30.8779C30.7805 43.1437 30.6042 42.7433 30.3536 42.4678H30.356Z" fill="#E82329"/>
<path d="M34.1302 43.0257C34.1603 42.5373 34.2833 42.1298 34.499 41.8081C34.7148 41.4863 34.9909 41.2271 35.3249 41.0303C35.659 40.8359 36.0348 40.6947 36.4524 40.6113C36.87 40.528 37.2899 40.4863 37.7121 40.4863C38.0949 40.4863 38.4846 40.5141 38.8767 40.5673C39.2688 40.6206 39.6284 40.7271 39.9531 40.8822C40.2779 41.0396 40.5424 41.2572 40.7489 41.5349C40.9553 41.8127 41.0574 42.1831 41.0574 42.6414V46.5882C41.0574 46.9308 41.076 47.2572 41.1154 47.572C41.1548 47.8845 41.2244 48.1206 41.3219 48.2757H39.1992C39.1597 48.1576 39.1273 48.0396 39.1041 47.9169C39.0785 47.7942 39.0623 47.6692 39.053 47.5419C38.7189 47.8845 38.3246 48.1229 37.8745 48.2595C37.4221 48.3961 36.9605 48.4655 36.4895 48.4655C36.1253 48.4655 35.7866 48.4215 35.4711 48.3336C35.1556 48.2456 34.8818 48.109 34.6452 47.9238C34.4086 47.7386 34.2253 47.5025 34.0931 47.2201C33.9608 46.9377 33.8936 46.5998 33.8936 46.2086C33.8936 45.778 33.9701 45.4238 34.1232 45.1461C34.2763 44.8683 34.4712 44.6461 34.7125 44.4794C34.9537 44.3127 35.2275 44.1877 35.5384 44.1044C35.8469 44.0211 36.1601 43.9562 36.4756 43.9053C36.7911 43.8567 37.0997 43.8173 37.4036 43.7873C37.7075 43.7572 37.9789 43.7132 38.2155 43.6553C38.4522 43.5974 38.6378 43.5118 38.7769 43.3984C38.9138 43.2849 38.9788 43.1229 38.9695 42.9076C38.9695 42.6831 38.9324 42.5048 38.8581 42.3729C38.7839 42.241 38.6865 42.1391 38.5635 42.065C38.4406 41.991 38.299 41.9423 38.1367 41.9192C37.9743 41.8961 37.8003 41.8822 37.6124 41.8822C37.1994 41.8822 36.8746 41.9701 36.6403 42.1461C36.4037 42.322 36.2668 42.616 36.2274 43.0257H34.1348H34.1302ZM38.9649 44.5673C38.8767 44.6461 38.7653 44.7062 38.6331 44.7502C38.5009 44.7942 38.357 44.8312 38.2063 44.8613C38.0531 44.8914 37.8931 44.9146 37.726 44.9354C37.559 44.9562 37.392 44.9794 37.2249 45.0095C37.0672 45.0396 36.9117 45.0789 36.761 45.1275C36.6078 45.1761 36.4756 45.2433 36.3619 45.3266C36.2483 45.4099 36.1578 45.5141 36.0882 45.6414C36.0186 45.7687 35.9861 45.9308 35.9861 46.1252C35.9861 46.3197 36.0209 46.4678 36.0882 46.5951C36.1578 46.7224 36.2506 46.822 36.3689 46.8961C36.4872 46.9701 36.6241 47.0211 36.7818 47.0511C36.9396 47.0812 37.102 47.0951 37.269 47.0951C37.682 47.0951 38.0021 47.0257 38.2271 46.8891C38.4522 46.7525 38.6192 46.5882 38.7282 46.3984C38.8373 46.2086 38.9022 46.0141 38.9277 45.8197C38.9533 45.6252 38.9649 45.4678 38.9649 45.3498V44.572V44.5673Z" fill="#E82329"/>
<path d="M44.5374 37.8032V48.2778H42.4448V37.8032H44.5374Z" fill="#E82329"/>
<path d="M50.5531 40.6923V42.0858H49.0196V45.8405C49.0196 46.1923 49.0776 46.4284 49.1959 46.5442C49.3142 46.6622 49.5509 46.7201 49.9035 46.7201C50.0218 46.7201 50.1332 46.7155 50.2422 46.7062C50.3512 46.697 50.4533 46.6808 50.5508 46.6622V48.2757C50.3744 48.3058 50.1773 48.3243 49.9615 48.3335C49.7457 48.3428 49.5346 48.3474 49.3282 48.3474C49.0034 48.3474 48.6972 48.3266 48.4072 48.2803C48.1172 48.2363 47.862 48.1507 47.6416 48.0233C47.4212 47.896 47.2449 47.7155 47.1173 47.4794C46.9897 47.2456 46.9247 46.9377 46.9247 46.5558V42.0812H45.6558V40.6877H46.9247V38.4146H49.0173V40.6877H50.5508L50.5531 40.6923Z" fill="#E82329"/>
<path d="M53.7683 37.8032V41.75H53.8124C54.0769 41.3102 54.4179 40.9907 54.8308 40.7893C55.2438 40.5879 55.6475 40.4884 56.0395 40.4884C56.6009 40.4884 57.0603 40.5648 57.4175 40.7153C57.7771 40.868 58.0578 41.0764 58.2643 41.3472C58.4708 41.6157 58.6146 41.9444 58.6981 42.331C58.7816 42.7176 58.8234 43.1458 58.8234 43.6157V48.2801H56.7308V43.9954C56.7308 43.3704 56.6334 42.9028 56.4362 42.5949C56.239 42.287 55.891 42.1319 55.3899 42.1319C54.8192 42.1319 54.4063 42.3009 54.1511 42.6389C53.8959 42.9768 53.7683 43.5324 53.7683 44.3032V48.2778H51.6758V37.8032H53.7683Z" fill="#E82329"/>
<path d="M132.497 4.70361V45.8286" stroke="#A6A7AA" stroke-width="2.02" stroke-miterlimit="10"/>
<path d="M166.541 34.3867H145.393V37.0603H169.597C168.444 36.3312 167.411 35.4284 166.541 34.3867Z" fill="#07509D"/>
<path d="M154.104 4.70361C149.685 4.70361 145.875 7.30315 144.122 11.0531H146.882C148.411 8.68741 151.072 7.11797 154.104 7.11797C158.848 7.11797 162.692 10.9536 162.692 15.6874C162.692 17.3911 162.194 18.9744 161.335 20.3101L161.869 21.6203C161.869 21.6203 159.997 24.4189 156.746 26.3541C161.551 25.1735 165.114 20.8471 165.114 15.6897C165.114 9.62259 160.185 4.70361 154.104 4.70361Z" fill="#EC1C24"/>
<path d="M162.683 16.0971H165.105C165.11 15.9606 165.114 15.8263 165.114 15.6897C165.114 9.62259 160.185 4.70361 154.104 4.70361C148.694 4.70361 144.2 8.59713 143.272 13.7291H145.745C146.634 9.94204 150.04 7.12028 154.104 7.12028C158.848 7.12028 162.692 10.9559 162.692 15.6897C162.692 15.8263 162.688 15.9629 162.683 16.0971Z" fill="#EC1C24"/>
<path d="M145.038 37.06L145.064 36.4906L144.69 35.604H143.458C143.379 36.0045 143.298 36.5184 143.256 37.06H145.04H145.038Z" fill="#EC1C24"/>
<path d="M162.451 17.6992C162.451 17.7432 162.203 22.264 153.304 25.5326C151.172 26.315 148.738 27.3751 146.857 29.2918C144.734 31.4562 143.523 34.0326 143.261 36.9492L144.497 37.0603H145.748C145.977 34.7733 146.947 32.7432 148.631 31.0256C150.167 29.4608 152.287 28.5464 154.162 27.8589C158.871 26.1298 161.521 23.9932 163.015 22.1251C164.295 20.3219 164.776 18.4747 164.931 17.6992H162.453H162.451Z" fill="#EC1C24"/>
<path d="M171.682 7.37722H185.82V4.70361H169.648L166.506 21.4397H168.942L171.682 7.37722Z" fill="#07509D"/>
<path d="M176.547 15.0878C172.128 15.0878 168.321 17.6873 166.569 21.4373H169.62C171.116 19.2128 173.659 17.7475 176.547 17.7475C181.152 17.7475 184.882 21.472 184.882 26.0646C184.882 30.6572 181.15 34.3817 176.547 34.3817C173.009 34.3817 169.986 32.1804 168.778 29.0762H165.968C167.281 33.6734 171.52 37.0438 176.549 37.0438C182.625 37.0438 187.553 32.1294 187.553 26.0646C187.553 19.9998 182.627 15.0854 176.549 15.0854L176.547 15.0878Z" fill="#EC1C24"/>
<path d="M146.555 45.7035C146.275 46.0067 145.834 46.1595 145.235 46.1595C145.061 46.1595 144.883 46.141 144.702 46.1016C144.521 46.0623 144.356 45.9998 144.208 45.9141C144.059 45.8262 143.938 45.7127 143.841 45.5738C143.744 45.4326 143.69 45.2613 143.681 45.06H144.298C144.303 45.1711 144.337 45.266 144.402 45.3424C144.467 45.4187 144.549 45.4812 144.641 45.5299C144.737 45.5785 144.839 45.6132 144.95 45.634C145.061 45.6549 145.168 45.6664 145.27 45.6664C145.474 45.6664 145.646 45.6317 145.785 45.5623C145.924 45.4928 146.043 45.3956 146.133 45.2729C146.226 45.1502 146.291 45.0021 146.333 44.8285C146.374 44.6549 146.395 44.4627 146.395 44.2567V44.0113H146.381C146.275 44.2428 146.115 44.4141 145.899 44.5229C145.683 44.6317 145.456 44.6849 145.212 44.6849C144.931 44.6849 144.688 44.634 144.479 44.5322C144.27 44.4303 144.096 44.2937 143.957 44.1224C143.816 43.9512 143.711 43.7498 143.642 43.5206C143.572 43.2914 143.537 43.0484 143.537 42.7937C143.537 42.5715 143.567 42.3424 143.625 42.1086C143.683 41.8748 143.781 41.6618 143.915 41.472C144.05 41.2822 144.231 41.1248 144.453 41.0021C144.676 40.8794 144.95 40.8169 145.275 40.8169C145.511 40.8169 145.729 40.8678 145.929 40.972C146.126 41.0762 146.282 41.2312 146.393 41.4396H146.4V40.9025H146.98V44.3285C146.98 44.9419 146.838 45.4002 146.558 45.7058L146.555 45.7035ZM145.767 44.0183C145.91 43.9326 146.024 43.8215 146.112 43.685C146.2 43.5484 146.263 43.391 146.305 43.2174C146.347 43.0437 146.367 42.8701 146.367 42.6965C146.367 42.5322 146.349 42.3701 146.309 42.2104C146.27 42.0507 146.21 41.9072 146.124 41.7799C146.038 41.6525 145.929 41.5484 145.794 41.472C145.66 41.3956 145.495 41.3562 145.3 41.3562C145.105 41.3562 144.934 41.3933 144.792 41.4674C144.653 41.5414 144.537 41.6433 144.447 41.7683C144.356 41.8933 144.291 42.0391 144.249 42.2035C144.208 42.3678 144.187 42.5391 144.187 42.7174C144.187 42.8863 144.203 43.0553 144.238 43.2243C144.273 43.3933 144.331 43.5461 144.412 43.685C144.493 43.8215 144.602 43.9326 144.739 44.0183C144.873 44.1016 145.043 44.1456 145.247 44.1456C145.451 44.1456 145.623 44.1039 145.767 44.0183Z" fill="#07509D"/>
<path d="M148.267 39.4746V44.6459H147.65V39.4746H148.267Z" fill="#07509D"/>
<path d="M148.993 42.0046C149.07 41.7662 149.186 41.5579 149.341 41.3819C149.497 41.206 149.687 41.0671 149.914 40.9653C150.142 40.8634 150.404 40.8125 150.699 40.8125C150.993 40.8125 151.26 40.8634 151.485 40.9653C151.71 41.0671 151.9 41.206 152.056 41.3819C152.211 41.5579 152.327 41.7662 152.404 42.0046C152.48 42.2431 152.52 42.5 152.52 42.7755C152.52 43.0509 152.48 43.3056 152.404 43.544C152.327 43.7801 152.211 43.9861 152.056 44.162C151.9 44.338 151.71 44.4769 151.485 44.5741C151.26 44.6736 150.998 44.7222 150.699 44.7222C150.399 44.7222 150.142 44.6736 149.914 44.5741C149.687 44.4745 149.497 44.338 149.341 44.162C149.186 43.9861 149.07 43.7801 148.993 43.544C148.917 43.3079 148.877 43.0509 148.877 42.7755C148.877 42.5 148.917 42.2431 148.993 42.0046ZM149.622 43.3819C149.682 43.5579 149.766 43.706 149.873 43.8241C149.979 43.9421 150.105 44.0324 150.246 44.0949C150.39 44.1574 150.541 44.1898 150.701 44.1898C150.861 44.1898 151.012 44.1597 151.156 44.0949C151.299 44.0324 151.422 43.9421 151.529 43.8241C151.636 43.706 151.719 43.5579 151.78 43.3819C151.84 43.206 151.87 43.0046 151.87 42.7778C151.87 42.5509 151.84 42.3495 151.78 42.1736C151.719 41.9977 151.636 41.8495 151.529 41.7292C151.422 41.6088 151.297 41.5162 151.156 41.4537C151.012 41.3912 150.861 41.3588 150.701 41.3588C150.541 41.3588 150.39 41.3912 150.246 41.4537C150.102 41.5162 149.979 41.6088 149.873 41.7292C149.766 41.8495 149.682 41.9977 149.622 42.1736C149.562 42.3495 149.532 42.5509 149.532 42.7778C149.532 43.0046 149.562 43.206 149.622 43.3819Z" fill="#07509D"/>
<path d="M153.661 40.9003V41.6897H153.675C153.826 41.3864 154.009 41.1619 154.227 41.0161C154.445 40.8702 154.721 40.8031 155.055 40.8124V41.4651C154.81 41.4651 154.598 41.4999 154.424 41.567C154.25 41.6341 154.109 41.7337 154.005 41.8633C153.898 41.9929 153.821 42.1526 153.773 42.3378C153.724 42.523 153.701 42.7383 153.701 42.979V44.6457H153.083V40.9003H153.663H153.661Z" fill="#07509D"/>
<path d="M155.7 40.2269V39.4746H156.317V40.2269H155.7ZM156.317 40.9005V44.6459H155.7V40.9005H156.317Z" fill="#07509D"/>
<path d="M157.043 42.0046C157.12 41.7662 157.236 41.5579 157.391 41.3819C157.547 41.206 157.737 41.0671 157.964 40.9653C158.192 40.8634 158.454 40.8125 158.748 40.8125C159.043 40.8125 159.31 40.8634 159.535 40.9653C159.76 41.0671 159.95 41.206 160.106 41.3819C160.261 41.5579 160.377 41.7662 160.454 42.0046C160.53 42.2431 160.569 42.5 160.569 42.7755C160.569 43.0509 160.53 43.3056 160.454 43.544C160.377 43.7801 160.261 43.9861 160.106 44.162C159.95 44.338 159.76 44.4769 159.535 44.5741C159.31 44.6736 159.048 44.7222 158.748 44.7222C158.449 44.7222 158.192 44.6736 157.964 44.5741C157.737 44.4745 157.547 44.338 157.391 44.162C157.236 43.9861 157.12 43.7801 157.043 43.544C156.967 43.3079 156.927 43.0509 156.927 42.7755C156.927 42.5 156.967 42.2431 157.043 42.0046ZM157.672 43.3819C157.732 43.5579 157.816 43.706 157.922 43.8241C158.029 43.9421 158.154 44.0324 158.296 44.0949C158.44 44.1574 158.591 44.1898 158.751 44.1898C158.911 44.1898 159.062 44.1597 159.205 44.0949C159.349 44.0324 159.472 43.9421 159.579 43.8241C159.686 43.706 159.769 43.5579 159.829 43.3819C159.89 43.206 159.92 43.0046 159.92 42.7778C159.92 42.5509 159.89 42.3495 159.829 42.1736C159.769 41.9977 159.686 41.8495 159.579 41.7292C159.472 41.6088 159.347 41.5162 159.205 41.4537C159.062 41.3912 158.911 41.3588 158.751 41.3588C158.591 41.3588 158.44 41.3912 158.296 41.4537C158.152 41.5162 158.029 41.6088 157.922 41.7292C157.816 41.8495 157.732 41.9977 157.672 42.1736C157.612 42.3495 157.581 42.5509 157.581 42.7778C157.581 43.0046 157.612 43.206 157.672 43.3819Z" fill="#07509D"/>
<path d="M163.678 44.6458V44.0509H163.664C163.534 44.2823 163.367 44.4536 163.163 44.5624C162.959 44.6712 162.72 44.7245 162.444 44.7245C162.198 44.7245 161.992 44.6921 161.827 44.6272C161.662 44.5624 161.53 44.4698 161.428 44.3471C161.326 44.2268 161.254 44.0833 161.214 43.9166C161.173 43.7499 161.152 43.5647 161.152 43.3634V40.9004H161.769V43.4351C161.769 43.6666 161.836 43.8495 161.973 43.986C162.108 44.1203 162.296 44.1897 162.532 44.1897C162.72 44.1897 162.885 44.162 163.022 44.1018C163.159 44.0416 163.275 43.9629 163.367 43.8564C163.46 43.7499 163.527 43.6249 163.574 43.4837C163.62 43.3425 163.643 43.1851 163.643 43.0161V40.9004H164.261V44.6458H163.681H163.678Z" fill="#07509D"/>
<path d="M165.513 43.8101C165.571 43.905 165.648 43.9791 165.743 44.0346C165.838 44.0902 165.945 44.1295 166.063 44.155C166.182 44.1781 166.305 44.192 166.43 44.192C166.527 44.192 166.629 44.1851 166.734 44.1712C166.838 44.1573 166.938 44.1295 167.028 44.0925C167.119 44.0531 167.191 43.9976 167.249 43.9212C167.307 43.8448 167.337 43.7499 167.337 43.6342C167.337 43.4744 167.277 43.3541 167.156 43.273C167.035 43.192 166.885 43.1249 166.701 43.074C166.518 43.023 166.323 42.9767 166.11 42.9374C165.896 42.8957 165.699 42.8379 165.518 42.7638C165.337 42.6897 165.186 42.5832 165.063 42.449C164.943 42.3147 164.882 42.1249 164.882 41.8842C164.882 41.6967 164.924 41.5346 165.01 41.398C165.096 41.2615 165.203 41.1527 165.337 41.0693C165.469 40.986 165.62 40.9212 165.787 40.8818C165.954 40.8402 166.119 40.8193 166.284 40.8193C166.497 40.8193 166.692 40.8379 166.871 40.8726C167.049 40.9096 167.209 40.9721 167.346 41.0601C167.483 41.1504 167.594 41.2707 167.676 41.4212C167.757 41.5717 167.806 41.7638 167.822 41.9906H167.205C167.195 41.8703 167.163 41.7707 167.11 41.6897C167.056 41.611 166.989 41.5462 166.905 41.4976C166.824 41.449 166.731 41.4142 166.634 41.3934C166.537 41.3726 166.434 41.361 166.332 41.361C166.24 41.361 166.147 41.3679 166.052 41.3818C165.957 41.3957 165.871 41.4212 165.794 41.4582C165.718 41.4953 165.653 41.5439 165.606 41.6041C165.558 41.6642 165.534 41.7429 165.534 41.8402C165.534 41.9467 165.571 42.0346 165.648 42.1041C165.725 42.1735 165.82 42.2314 165.936 42.2777C166.052 42.324 166.182 42.3633 166.328 42.3934C166.474 42.4258 166.618 42.4582 166.764 42.4906C166.919 42.5254 167.07 42.5647 167.219 42.6133C167.367 42.6619 167.497 42.7244 167.611 42.8054C167.724 42.8842 167.817 42.986 167.887 43.1064C167.956 43.2267 167.991 43.3772 167.991 43.5554C167.991 43.7823 167.945 43.9698 167.85 44.1203C167.755 44.2707 167.632 44.3911 167.478 44.4814C167.325 44.574 167.154 44.6365 166.963 44.6735C166.773 44.7105 166.583 44.7267 166.393 44.7267C166.184 44.7267 165.987 44.7059 165.797 44.6619C165.606 44.6179 165.442 44.5462 165.295 44.449C165.149 44.3517 165.033 44.2198 164.947 44.0578C164.859 43.8957 164.813 43.699 164.801 43.4675H165.418C165.423 43.6017 165.455 43.7175 165.513 43.8124V43.8101Z" fill="#07509D"/>
<path d="M172.165 45.1459C172.093 45.3288 172.021 45.4839 171.951 45.6089C171.882 45.7339 171.803 45.838 171.719 45.9167C171.634 45.9954 171.541 46.0533 171.436 46.0903C171.332 46.1274 171.211 46.1436 171.077 46.1436C171.005 46.1436 170.931 46.1389 170.859 46.1297C170.787 46.1204 170.715 46.1042 170.648 46.0788V45.5139C170.701 45.5371 170.764 45.5579 170.833 45.5764C170.903 45.595 170.963 45.6019 171.012 45.6019C171.137 45.6019 171.244 45.5718 171.327 45.5116C171.413 45.4514 171.476 45.3658 171.52 45.2547L171.775 44.6251L170.286 40.9028H170.982L172.077 43.9676H172.091L173.144 40.9028H173.798L172.165 45.1482V45.1459Z" fill="#07509D"/>
<path d="M176.83 44.4073C176.549 44.6203 176.197 44.7267 175.77 44.7267C175.471 44.7267 175.211 44.6781 174.99 44.5832C174.77 44.4883 174.584 44.3517 174.436 44.1781C174.288 44.0045 174.174 43.7962 174.097 43.5554C174.021 43.3147 173.979 43.0508 173.97 42.7661C173.97 42.4814 174.014 42.2198 174.1 41.9837C174.188 41.7476 174.308 41.5416 174.466 41.3679C174.624 41.1943 174.81 41.0601 175.025 40.9629C175.241 40.8656 175.478 40.8193 175.733 40.8193C176.067 40.8193 176.343 40.8888 176.563 41.0254C176.784 41.1619 176.96 41.3379 177.092 41.5508C177.225 41.7638 177.317 41.9953 177.368 42.2453C177.419 42.4953 177.44 42.736 177.431 42.9629H174.622C174.617 43.1272 174.636 43.2823 174.68 43.4304C174.724 43.5786 174.793 43.7082 174.891 43.8217C174.988 43.9351 175.111 44.0254 175.262 44.0925C175.413 44.1596 175.589 44.1943 175.791 44.1943C176.053 44.1943 176.266 44.1342 176.433 44.0138C176.6 43.8934 176.71 43.7105 176.763 43.4629H177.373C177.292 43.8842 177.109 44.199 176.828 44.4119L176.83 44.4073ZM176.682 42.0022C176.626 41.8726 176.552 41.7592 176.457 41.6642C176.362 41.5693 176.25 41.4953 176.123 41.4397C175.995 41.3842 175.853 41.3564 175.698 41.3564C175.543 41.3564 175.394 41.3842 175.267 41.4397C175.139 41.4953 175.028 41.5717 174.937 41.6689C174.844 41.7661 174.772 41.8772 174.719 42.0068C174.666 42.1342 174.633 42.2707 174.624 42.4166H176.779C176.77 42.2707 176.737 42.1342 176.682 42.0045V42.0022Z" fill="#07509D"/>
<path d="M181.398 44.632C181.291 44.6945 181.145 44.7269 180.955 44.7269C180.795 44.7269 180.667 44.6829 180.574 44.5926C180.479 44.5023 180.433 44.3565 180.433 44.1551C180.263 44.3588 180.066 44.5046 179.841 44.5926C179.616 44.6829 179.373 44.7269 179.113 44.7269C178.943 44.7269 178.783 44.7084 178.63 44.669C178.477 44.6296 178.345 44.5695 178.234 44.4884C178.122 44.4074 178.034 44.2986 177.969 44.1667C177.904 44.0347 177.872 43.8727 177.872 43.6852C177.872 43.4722 177.909 43.2986 177.981 43.1644C178.053 43.0301 178.148 42.919 178.268 42.8357C178.387 42.75 178.521 42.6875 178.674 42.6435C178.827 42.5996 178.983 42.5648 179.143 42.5347C179.312 42.5 179.472 42.4769 179.625 42.4583C179.779 42.4398 179.913 42.4167 180.029 42.3866C180.145 42.3565 180.238 42.3102 180.305 42.25C180.372 42.1898 180.407 42.1019 180.407 41.9861C180.407 41.8519 180.382 41.7431 180.331 41.6597C180.28 41.5787 180.215 41.5139 180.136 41.4722C180.057 41.4306 179.966 41.4005 179.867 41.3843C179.767 41.3704 179.67 41.3634 179.572 41.3634C179.31 41.3634 179.092 41.4121 178.918 41.5116C178.744 41.6111 178.649 41.7986 178.635 42.0741H178.018C178.027 41.8426 178.076 41.6459 178.164 41.4861C178.252 41.3264 178.368 41.1968 178.512 41.0996C178.658 41 178.823 40.9283 179.008 40.8866C179.194 40.8426 179.393 40.8218 179.607 40.8218C179.776 40.8218 179.946 40.8333 180.11 40.8588C180.277 40.882 180.428 40.9329 180.565 41.007C180.7 41.081 180.809 41.1875 180.892 41.3218C180.976 41.456 181.015 41.632 181.015 41.8496V43.7732C181.015 43.9167 181.024 44.0232 181.041 44.0903C181.057 44.1574 181.115 44.1921 181.212 44.1921C181.266 44.1921 181.328 44.1829 181.4 44.1644V44.6435L181.398 44.632ZM180.396 42.7107C180.319 42.7685 180.217 42.8102 180.092 42.8357C179.966 42.8634 179.834 42.8843 179.695 42.9005C179.558 42.9167 179.419 42.9375 179.277 42.9584C179.138 42.9792 179.011 43.0139 178.899 43.0625C178.788 43.1111 178.697 43.1783 178.628 43.2685C178.558 43.3565 178.523 43.4792 178.523 43.632C178.523 43.7338 178.544 43.8171 178.586 43.8889C178.628 43.9584 178.681 44.0139 178.746 44.0579C178.811 44.1019 178.888 44.132 178.976 44.1505C179.064 44.169 179.154 44.1783 179.252 44.1783C179.456 44.1783 179.63 44.1505 179.774 44.0949C179.918 44.0394 180.038 43.9699 180.129 43.8866C180.219 43.8033 180.289 43.7107 180.333 43.6134C180.377 43.5139 180.398 43.4213 180.398 43.3357V42.7083L180.396 42.7107Z" fill="#07509D"/>
<path d="M182.53 40.9003V41.6897H182.544C182.695 41.3864 182.878 41.1619 183.096 41.0161C183.314 40.8702 183.59 40.8031 183.924 40.8124V41.4651C183.678 41.4651 183.467 41.4999 183.293 41.567C183.119 41.6341 182.978 41.7337 182.873 41.8633C182.766 41.9929 182.69 42.1526 182.641 42.3378C182.592 42.523 182.569 42.7383 182.569 42.979V44.6457H181.952V40.9003H182.532H182.53Z" fill="#07509D"/>
<path d="M184.859 43.8101C184.917 43.905 184.994 43.9791 185.089 44.0346C185.184 44.0902 185.291 44.1295 185.409 44.155C185.527 44.1781 185.65 44.192 185.776 44.192C185.873 44.192 185.975 44.1851 186.079 44.1712C186.184 44.1573 186.284 44.1295 186.374 44.0925C186.465 44.0531 186.536 43.9976 186.594 43.9212C186.652 43.8448 186.683 43.7499 186.683 43.6342C186.683 43.4744 186.622 43.3541 186.502 43.273C186.381 43.192 186.23 43.1249 186.047 43.074C185.864 43.023 185.669 42.9767 185.455 42.9374C185.242 42.8957 185.045 42.8379 184.864 42.7638C184.683 42.6897 184.532 42.5832 184.409 42.449C184.288 42.3147 184.228 42.1249 184.228 41.8842C184.228 41.6967 184.27 41.5346 184.356 41.398C184.442 41.2615 184.548 41.1527 184.683 41.0693C184.815 40.986 184.966 40.9212 185.133 40.8818C185.3 40.8402 185.465 40.8193 185.629 40.8193C185.843 40.8193 186.038 40.8379 186.216 40.8726C186.395 40.9096 186.555 40.9721 186.692 41.0601C186.829 41.1504 186.94 41.2707 187.021 41.4212C187.103 41.5717 187.151 41.7638 187.167 41.9906H186.55C186.541 41.8703 186.509 41.7707 186.455 41.6897C186.402 41.611 186.335 41.5462 186.251 41.4976C186.17 41.449 186.077 41.4142 185.98 41.3934C185.882 41.3726 185.78 41.361 185.678 41.361C185.585 41.361 185.493 41.3679 185.397 41.3818C185.302 41.3957 185.216 41.4212 185.14 41.4582C185.063 41.4953 184.998 41.5439 184.952 41.6041C184.903 41.6642 184.88 41.7429 184.88 41.8402C184.88 41.9467 184.917 42.0346 184.994 42.1041C185.07 42.1735 185.165 42.2314 185.281 42.2777C185.397 42.324 185.527 42.3633 185.673 42.3934C185.82 42.4258 185.963 42.4582 186.11 42.4906C186.265 42.5254 186.416 42.5647 186.564 42.6133C186.713 42.6619 186.843 42.7244 186.956 42.8054C187.07 42.8842 187.163 42.986 187.232 43.1064C187.302 43.2267 187.337 43.3772 187.337 43.5554C187.337 43.7823 187.29 43.9698 187.195 44.1203C187.1 44.2707 186.977 44.3911 186.824 44.4814C186.671 44.574 186.499 44.6365 186.309 44.6735C186.119 44.7105 185.929 44.7267 185.738 44.7267C185.53 44.7267 185.332 44.7059 185.142 44.6619C184.952 44.6179 184.787 44.5462 184.641 44.449C184.495 44.3517 184.379 44.2198 184.293 44.0578C184.205 43.8957 184.159 43.699 184.147 43.4675H184.764C184.769 43.6017 184.801 43.7175 184.859 43.8124V43.8101Z" fill="#07509D"/>
</svg>
